PathFileType	4	(X/Y/Z)	C:/Users/beibeiliu/ov580/test_trc/User2\sequence.19_training_dense_left.trc
DataRate	CameraRate	NumFrames	NumMarkers	Units	OrigDataRate	OrigDataStartFrame	OrigNumFrames
120	120	13	19	mm	120	1	40
Frame#	Time	ThumbCMC			ThumbMCP			ThumbIP			ThumbTip			IndexMCP			IndexPIP			IndexTip			MiddleMCP			MiddlePIP			MiddleTip			RingMCP			RingPIP			RingTip			PinkyMCP			PinkyPIP			PinkyTip			BackHand1			BackHand2			BackHand3	
		X0	Y0	Z0	X1	Y1	Z1	X2	Y2	Z2	X3	Y3	Z3	X4	Y4	Z4	X5	Y5	Z5	X6	Y6	Z6	X7	Y7	Z7	X8	Y8	Z8	X9	Y9	Z9	X10	Y10	Z10	X11	Y11	Z11	X12	Y12	Z12	X13	Y13	Z13	X14	Y14	Z14	X15	Y15	Z15	X16	Y16	Z16	X17	Y17	Z17	X18	Y18	Z18	
0	0	-185.833	16.2224	13.3605	-167.642	-13.0962	-7.70847	-175.013	-45.688	-28.6185	-207.795	-61.2358	-29.2029	-193.043	-5.41643	-64.939	-178.93	-13.7756	-87.0597	-165.276	-26.5126	-114.941	-218.704	-21.5647	-70.8385	-215.906	-36.1364	-98.5621	-213.492	-52.6687	-125.866	-237.324	-37.8694	-61.4025	-238.745	-50.9229	-80.6861	-237.643	-67.9686	-105.052	-254.099	-53.0446	-35.6421	-257.212	-67.9615	-51.8313	-261.953	-80.0333	-75.1598	-247.759	-8.36588	-16.0243	-257.766	10.6805	15.3157	-225.932	22.0718	-7.32775	
1	0.00833333	-204.998	35.6179	6.55594	-175.979	16.0933	-11.9414	-174.486	-18.0955	-23.9167	-192.929	-44.9832	-22.7571	-198.98	4.85685	-68.6968	-182.111	-1.49049	-92.2566	-165.333	-10.5378	-115.438	-213.522	-20.3473	-72.782	-204.896	-33.148	-93.8998	-195.154	-51.7004	-120.913	-228.409	-43.3306	-55.7342	-219.327	-55.0051	-76.6759	-210.742	-74.602	-103.023	-234.125	-54.1688	-28.5495	-232.393	-77.87	-49.3407	-233.318	-90.4827	-65.107	-250.462	-14.3995	-12.7577	-266.44	2.98588	8.88867	-240.828	23.7082	-13.8806	
2	0.0166667	-224.534	49.5934	3.22977	-190.449	41.1518	-12.7601	-172.966	4.10053	-24.8358	-180.617	-20.181	-17.7242	-201.964	19.151	-73.3534	-186.974	13.0427	-90.9442	-168.871	12.9007	-112.893	-211.126	-15.7571	-67.7489	-194.56	-26.6162	-91.2797	-178.913	-39.0531	-114.969	-214.822	-33.9338	-51.8705	-199.629	-51.8433	-73.9213	-186.092	-67.6377	-93.4519	-217.989	-50.5259	-23.6302	-206.53	-71.0274	-38.7423	-199.393	-85.466	-55.0727	-247.578	-16.9208	-12.4661	-267.591	-3.07397	8.34468	-253.766	21.9613	-14.4896	
3	0.025	-239.04	57.2169	-4.70534	-205.839	55.1399	-16.0022	-179.661	28.435	-22.8256	-176.794	2.27873	-15.4298	-208.083	26.5524	-72.4701	-191.331	30.3745	-94.6876	-173.592	25.6159	-110.578	-207.545	-4.03712	-65.4392	-185.548	-14.4446	-89.8079	-165.794	-24.7626	-110.06	-203.773	-24.7501	-50.7807	-185.462	-38.2395	-67.7594	-169.458	-46.3988	-85.098	-203.483	-34.387	-20.4596	-186.894	-52.581	-35.1669	-176.184	-69.3566	-47.6013	-240.223	-13.7324	-13.2118	-265.588	-10.5062	9.0278	-258.812	20.4957	-18.7583	
4	0.0333333	-256.32	57.9482	-1.97229	-221.059	67.5776	-19.1481	-187.973	51.8057	-24.172	-179.6	21.8897	-14.3627	-219.579	39.2284	-71.7007	-203.186	42.9346	-91.6588	-185.251	47.9982	-113.3	-203.809	9.79633	-70.7675	-180.3	7.22926	-91.2173	-160.978	2.13728	-108.367	-194.866	-12.0355	-46.0169	-174.328	-16.6967	-67.6072	-152.295	-23.044	-84.2002	-190.348	-22.0039	-17.1959	-172.152	-27.5364	-31.8944	-156.69	-43.0631	-43.9311	-236.772	-9.45199	-12.9666	-262.908	-7.09922	5.31708	-262.109	19.352	-18.8626	
5	0.0416667	-266.534	56.6319	-6.764	-238.328	74.2119	-20.8327	-201.464	61.5756	-26.004	-187.228	37.595	-15.4699	-231.473	46.147	-72.836	-211.636	51.5697	-96.9353	-199.359	61.0271	-116.57	-205.551	19.1724	-69.865	-186.28	22.9862	-91.8915	-161.472	22.4491	-110.593	-192.709	2.38605	-48.0828	-170.583	1.40918	-67.9123	-150.853	1.42393	-83.941	-186.954	-4.00329	-21.497	-167.82	-4.72971	-33.1321	-147.285	-14.7819	-45.6261	-238.078	-2.30532	-13.1069	-259.179	-9.50786	7.3531	-268.31	19.7035	-20.2257	
6	0.05	-277.512	54.9602	-8.60139	-251.577	77.4012	-25.2518	-217.171	73.0438	-28.4616	-197.966	51.0629	-20.8619	-238.604	47.5378	-79.4717	-231.789	58.1423	-99.0477	-216.289	67.203	-122.114	-212.229	27.6227	-75.1419	-197.975	35.4187	-96.6777	-174.227	41.0194	-121.604	-200.071	16.9101	-54.9352	-177.672	18.6444	-73.8401	-157.213	23.4865	-97.9916	-184.902	9.24789	-27.1129	-163.537	11.8248	-43.6965	-147.662	7.51953	-57.3008	-236.803	3.25867	-15.2308	-254.517	-11.142	7.47689	-270.031	13.3216	-19.7318	
7	0.0583333	-285.46	49.9651	-4.70131	-263.655	76.6041	-26.1629	-224.679	75.7576	-39.8802	-202.34	56.3698	-31.4355	-252.926	45.0563	-82.1858	-247.064	57.4111	-108.128	-235.694	64.9307	-128.877	-224.185	30.2938	-81.6226	-210.415	38.1904	-105.012	-193.037	49.416	-134.976	-206.786	20.7578	-63.7226	-185.293	23.894	-83.379	-170.171	31.1914	-105.949	-187.432	15.7173	-38.9706	-172.65	21.6121	-53.4902	-153.559	19.4478	-73.8792	-232.894	1.10809	-17.2376	-249.868	-10.9779	4.31293	-273.947	11.1136	-21.9255	
8	0.0666667	-287.087	46.0622	-6.3602	-269.847	69.8928	-30.5171	-237.092	70.5225	-45.1132	-212.518	50.9054	-39.7943	-268.029	35.9751	-82.3814	-265.457	45.4998	-113.065	-262.332	57.1555	-139.471	-240.185	23.0395	-84.5346	-225.705	29.9747	-116.176	-215.573	39.0326	-143.284	-216.06	15.6529	-72.653	-201.308	19.3982	-94.7566	-191.043	28.5314	-123.31	-197.006	14.0014	-45.0602	-183.483	19.4443	-65.5896	-167.161	17.0957	-87.1717	-237.527	0.808153	-22.8541	-249.277	-13.1068	6.50213	-275.596	7.21316	-18.4333	
9	0.075	-291.599	39.5542	-4.36046	-281.005	64.8613	-36.9195	-251.373	66.3004	-58.0702	-225.936	47.6425	-50.706	-286.181	22.7886	-83.6888	-285.742	25.7984	-109.683	-286.297	32.8419	-139.624	-259.186	10.1302	-90.1928	-253.645	13.9864	-120.284	-244.804	19.6153	-149.813	-235.278	4.7434	-80.6619	-221.526	4.42517	-102.052	-215.242	11.6404	-132.243	-213.06	7.4102	-54.9001	-196.373	7.57874	-79.4578	-186.807	5.79697	-101.006	-242.665	-6.83877	-24.4098	-251.597	-16.1691	2.58326	-283.282	0.730882	-15.4324	
10	0.0833333	-300.675	34.4863	-7.20255	-292.328	54.3916	-39.7907	-264.408	52.2775	-65.9601	-237.763	33.1784	-62.8928	-302.984	5.24478	-81.7571	-311.481	6.22227	-107.284	-313.232	8.85696	-139.295	-278.157	-7.54744	-90.9566	-277.519	-6.85472	-119.338	-270.926	-6.56753	-151.284	-248.25	-12.2091	-79.9785	-244.918	-14.6333	-106.366	-243.84	-12.2246	-139.036	-227.912	-5.28103	-61.1797	-216.014	-9.83716	-87.0603	-208.339	-13.5193	-109.58	-252.852	-14.5014	-24.8908	-257.574	-18.9382	2.83189	-290.037	-7.56424	-12.7162	
11	0.0916667	-303.799	31.8107	-4.3119	-302.335	50.0669	-43.5535	-277.41	42.3525	-72.1997	-252.511	22.8742	-67.0344	-322.065	-5.96809	-76.1231	-332.853	-8.41988	-102.812	-337.029	-8.99732	-128.444	-297.009	-20.4935	-83.7438	-299.332	-26.1813	-116.655	-300.889	-28.6039	-150.257	-267.991	-25.0782	-76.8866	-270.038	-30.5644	-104.42	-268.297	-34.3217	-133.763	-244.783	-20.9214	-67.4804	-236.981	-25.9482	-87.819	-228.069	-36.6166	-112.749	-265.262	-22.9499	-25.6174	-263.828	-24.1442	6.55913	-301.421	-8.43125	-10.2022	
12	0.1	-307.646	32.6816	-9.1244	-301.846	46.1145	-43.7793	-281.249	35.6893	-75.4625	-258.933	10.9367	-71.4914	-336.081	-6.72111	-72.3525	-349.029	-9.34651	-95.7912	-354.849	-12.4864	-120.727	-315.579	-24.6918	-80.1892	-320.607	-33.6493	-111.586	-323.858	-40.0814	-139.112	-283.695	-34.3683	-74.9461	-291.252	-41.0576	-103.202	-292.065	-46.9663	-130.754	-256.339	-29.5225	-61.9012	-253.804	-39.7493	-85.2871	-252.958	-54.1086	-111.018	-279.847	-22.1639	-25.1954	-274.73	-21.886	10.5461	-307.424	-6.12782	-5.14276	
